<?xml version="1.0" encoding="utf-8"?>
<!-- Generator: Adobe Illustrator 24.0.2, SVG Export Plug-In . SVG Version: 6.00 Build 0)  -->
<svg version="1.1" id="레이어_1" xmlns="http://www.w3.org/2000/svg" xmlns:xlink="http://www.w3.org/1999/xlink" x="0px"
	 y="0px" viewBox="0 0 100 44.6" style="enable-background:new 0 0 100 44.6;" xml:space="preserve">
<style type="text/css">
	.st0{fill:#CD4919;}
	.st1{fill:#FFFFFF;}
</style>
<g>
	<rect x="56.5" y="1" class="st0" width="42.5" height="42.5"/>
</g>
<path class="st1" d="M84.6,29.5c0.2-0.4,0.2-0.8,0-1.2c-0.1-0.2-0.2-0.4-0.3-0.5L75,18.6c-0.6-0.6-1.6-0.6-2.2,0
	c-0.6,0.6-0.6,1.6,0,2.2l6.6,6.6H2.6C1.7,27.4,1,28.1,1,29c0,0.9,0.7,1.6,1.6,1.6h80.6c0.2,0,0.4,0,0.6-0.1
	C84.1,30.2,84.4,29.9,84.6,29.5z"/>
</svg>
