<?xml version="1.0" encoding="utf-8"?>
<!-- Generator: Adobe Illustrator 24.0.2, SVG Export Plug-In . SVG Version: 6.00 Build 0)  -->
<svg version="1.1" id="레이어_1" xmlns="http://www.w3.org/2000/svg" xmlns:xlink="http://www.w3.org/1999/xlink" x="0px"
	 y="0px" viewBox="0 0 150 150" style="enable-background:new 0 0 150 150;" xml:space="preserve">
<style type="text/css">
	.st0{fill:#FFFFFF;}
</style>
<path class="st0" d="M149.2,75.2c0,4.6-3.9,8.2-8.2,8.2h-8.2l0.2,41.2c0,0.7-0.1,1.4-0.1,2.1v4.1c0,5.7-4.6,10.3-10.3,10.3h-4.1
	c-0.3,0-0.6,0-0.8,0c-0.4,0-0.7,0-1.1,0h-8.4H102c-5.7,0-10.3-4.6-10.3-10.3v-6.2v-16.4c0-4.5-3.7-8.2-8.2-8.2H67
	c-4.5,0-8.2,3.7-8.2,8.2v16.4v6.2c0,5.7-4.6,10.3-10.3,10.3h-6.2h-8.2c-0.4,0-0.8,0-1.2-0.1c-0.3,0-0.6,0.1-0.9,0.1H28
	c-5.7,0-10.3-4.6-10.3-10.3v-28.8c0-0.2,0-0.5,0-0.7V83.5H9.5c-4.6,0-8.2-3.6-8.2-8.2c0-2.3,0.8-4.4,2.6-6.2l65.9-57.4
	c1.8-1.8,3.9-2.1,5.7-2.1c1.8,0,3.9,0.5,5.4,1.8l65.6,57.7C148.4,70.9,149.5,72.9,149.2,75.2z"/>
</svg>
