<?xml version="1.0" encoding="utf-8"?>
<!-- Generator: Adobe Illustrator 24.0.2, SVG Export Plug-In . SVG Version: 6.00 Build 0)  -->
<svg version="1.1" id="레이어_1" xmlns="http://www.w3.org/2000/svg" xmlns:xlink="http://www.w3.org/1999/xlink" x="0px"
	 y="0px" viewBox="0 0 138 69.7" style="enable-background:new 0 0 138 69.7;" xml:space="preserve">
<style type="text/css">
	.st0{fill:#FFFFFF;}
</style>
<g>
	<polygon class="st0" points="37.5,1.3 14,35 37.5,68.8 54.4,68.8 31,35 54.4,1.3 	"/>
	<rect x="1" y="1.3" class="st0" width="13" height="33.8"/>
	<path class="st0" d="M84.5,1.3h-18l4,10.4h-4.4l-4-10.4H56l21.9,56.3c1.6,4.2,7.5,4.3,9.3,0.2l2.1-4.7l9-20.1L84.5,1.3z"/>
	<path class="st0" d="M131.4,13.9L127,25.4h-4.4l4.4-11.4h-20.2l-4.8,10.7L98.3,33v0l-9,20.1l-7.1,15.7h17.2c8.2,0,15.7-4.9,19-12.4
		L137,13.9H131.4z"/>
	<polygon class="st0" points="98.3,33 89.3,53.1 98.3,33 	"/>
	<polygon class="st0" points="98.3,33 89.3,53.1 98.3,33 	"/>
</g>
</svg>
